<?xml version="1.0" encoding="UTF-8"?>
<svg xmlns="http://www.w3.org/2000/svg" viewBox="0 0 24 24" fill="none" stroke="currentColor" stroke-width="2" stroke-linecap="round" stroke-linejoin="round">
  <path d="M10.5 20.4 10 21a4 4 0 0 1-5.5 0 4 4 0 0 1 0-5.5l.5-.5"/>
  <path d="M9.5 14.5 16 8a3 3 0 0 0-9-9 3 3 0 0 0-2 12l3 3"/>
  <path d="M22 2c-2.5-.8-4.5.5-5 2.5"/>
  <path d="M13 2c2.5.8 4 2.5 4 5"/>
  <path d="M16 8h5"/>
  <path d="M2 12h15"/>
  <path d="M7 16v6"/>
  <path d="M12 16v6"/>
  <path d="M17 16v6"/>
  <path d="M2 20h20"/>
</svg> 