<?xml version="1.0" encoding="UTF-8"?>
<svg xmlns="http://www.w3.org/2000/svg" viewBox="0 0 24 24" fill="none" stroke="currentColor" stroke-width="2" stroke-linecap="round" stroke-linejoin="round">
  <path d="M9 18h6"/>
  <path d="M10 22h4"/>
  <path d="m2 9 1.5 1.5c.5.5.5 1.5 0 2l-1.5 1.5c-.5.5-.5 1.5 0 2l1.5 1.5c.5.5.5 1.5 0 2l-1.5 1.5"/>
  <path d="m22 9-1.5 1.5c-.5.5-.5 1.5 0 2l1.5 1.5c.5.5.5 1.5 0 2l-1.5 1.5c-.5.5-.5 1.5 0 2l1.5 1.5"/>
  <path d="M8 2v2"/>
  <path d="M16 2v2"/>
  <rect width="12" height="8" x="6" y="2" rx="1"/>
  <path d="M12 6v4"/>
  <path d="M10 10h4"/>
</svg> 